<svg width="18" height="18" viewBox="0 0 18 18" fill="none" xmlns="http://www.w3.org/2000/svg">
<g clip-path="url(#clip0)">
<path d="M15.9231 4.50013H15.2308V3.1155C15.2308 1.97043 14.2989 1.03857 13.1539 1.03857H2.07693C0.931852 1.03857 0 1.97043 0 3.1155V12.1155C0 13.2606 0.931852 14.1924 2.07693 14.1924H3.46155V14.8847C3.46155 16.0298 4.39341 16.9616 5.53848 16.9616H15.9231C17.0682 16.9616 18 16.0298 18 14.8847V6.57705C18 5.43198 17.0681 4.50013 15.9231 4.50013ZM2.07693 12.8078C1.69548 12.8078 1.38463 12.4977 1.38463 12.1155V3.11554C1.38463 2.73339 1.69548 2.42324 2.07693 2.42324H13.1539C13.5353 2.42324 13.8461 2.73339 13.8461 3.11554V12.1155C13.8461 12.4977 13.5353 12.8078 13.1539 12.8078H2.07693ZM16.6154 14.8848C16.6154 15.2669 16.3045 15.5771 15.9231 15.5771H5.53844C5.157 15.5771 4.84615 15.2669 4.84615 14.8848V14.1925H13.1539C14.2989 14.1925 15.2308 13.2606 15.2308 12.1155V5.88476H15.9231C16.3045 5.88476 16.6154 6.19491 16.6154 6.57705V14.8848Z" fill="currentColor"/>
<path d="M11.0773 5.19214H4.15421C3.77206 5.19214 3.46191 5.50158 3.46191 5.88444C3.46191 6.26729 3.77206 6.57673 4.15421 6.57673H11.0773C11.4594 6.57673 11.7696 6.26729 11.7696 5.88444C11.7696 5.50162 11.4594 5.19214 11.0773 5.19214Z" fill="currentColor"/>
<path d="M9.69185 8.65405H5.538C5.15585 8.65405 4.8457 8.9635 4.8457 9.34635C4.8457 9.7292 5.15585 10.0387 5.538 10.0387H9.69185C10.074 10.0387 10.3841 9.7292 10.3841 9.34635C10.3842 8.9635 10.074 8.65405 9.69185 8.65405Z" fill="currentColor"/>
</g>
<defs>
<clipPath id="clip0">
<rect width="18" height="18" fill="white"/>
</clipPath>
</defs>
</svg>
