<svg width="19" height="18" viewBox="0 0 19 18" fill="none" xmlns="http://www.w3.org/2000/svg">
<path d="M17 2.99999H15.5H13.25V0.749988C13.25 0.335988 12.9147 0 12.5 0H6.49999C6.08525 0 5.75 0.335988 5.75 0.749988V2.99999H3.5H1.99999C1.58525 2.99999 1.25 3.33598 1.25 3.74998C1.25 4.16398 1.58521 4.5 1.99999 4.5H2.74998V15.75C2.74998 16.9905 3.75949 18 4.99998 18H14C15.2405 18 16.25 16.9905 16.25 15.75V4.5H17C17.4147 4.5 17.75 4.16401 17.75 3.75001C17.75 3.33601 17.4147 2.99999 17 2.99999ZM7.24998 1.50001H11.75V3.00002H7.24998V1.50001ZM14.75 15.75C14.75 16.1633 14.414 16.5 14 16.5H4.99998C4.58598 16.5 4.24999 16.1632 4.24999 15.75V4.5H6.49999H12.5H14.75V15.75H14.75Z" fill="currentColor"/>
<path d="M7.24999 6C6.83525 6 6.5 6.33599 6.5 6.74999V13.5C6.5 13.914 6.83525 14.25 7.24999 14.25C7.66473 14.25 7.99998 13.914 7.99998 13.5V6.74999C7.99998 6.33599 7.66473 6 7.24999 6Z" fill="currentColor"/>
<path d="M11.75 6C11.3353 6 11 6.33599 11 6.74999V13.5C11 13.914 11.3353 14.25 11.75 14.25C12.1647 14.25 12.5 13.914 12.5 13.5V6.74999C12.5 6.33599 12.1647 6 11.75 6Z" fill="currentColor"/>
</svg>
