<svg width="18" height="18" viewBox="0 0 18 18" fill="none" xmlns="http://www.w3.org/2000/svg">
<path d="M0.999787 12.528H11.075V14.5276H0.999787C0.447645 14.5276 0 14.0799 0 13.5278C0 12.9757 0.447645 12.528 0.999787 12.528Z" fill="currentColor"/>
<path d="M0.999787 8.51552H11.075V10.5151H0.999787C0.447645 10.5151 0 10.0675 0 9.51531C0 8.96313 0.447645 8.51552 0.999787 8.51552Z" fill="currentColor"/>
<path d="M0.999787 6.50293V6.50289C0.447645 6.50289 0 6.05528 0 5.5031C0 4.95092 0.447645 4.50332 0.999787 4.50332H7.99927C7.92021 4.74682 7.87846 5.00366 7.87846 5.26711C7.87846 5.7083 7.99415 6.1315 8.21023 6.50293H0.999787Z" fill="currentColor"/>
<path d="M17.6296 6.1611C17.1359 6.65487 16.3353 6.65487 15.8415 6.1611L14.8034 5.12297V15.9295C14.8034 16.6278 14.2373 17.1938 13.539 17.1938C12.8407 17.1938 12.2747 16.6278 12.2747 15.9295V5.12297L11.2365 6.1611C10.7428 6.65483 9.94222 6.65487 9.44845 6.1611C8.95468 5.66733 8.95468 4.86679 9.44845 4.37302L12.6448 1.17672C13.1376 0.683769 13.9391 0.682087 14.4333 1.17672L17.6296 4.37302C18.1233 4.86679 18.1234 5.66733 17.6296 6.1611Z" fill="currentColor"/>
</svg>
